# xmcd CD database file
#
# Track frame offsets:
#	150
#	23537
#	44137
#
# Disc length: 900 seconds
#
# Revision: 2
# Processed by: cddbd v1.5PL3 Copyright (c) Steve Scherf et al.
# Submitted via: CDex 1.51
#
DISCID=1e038203
DTITLE=D-LOOP - Just place of Love
DYEAR=1997
DGENRE=JPop
TTITLE0=Just place of Love
TTITLE1=Bodycation
TTITLE2=Just place of Love (Instrumental)
EXTD=YEAR: 1997
EXTT0=
EXTT1=
EXTT2=
PLAYORDER=
